<svg xmlns="http://www.w3.org/2000/svg" viewBox="0 0 100 100" width="100%" height="100%">
  <!-- Green Square container -->
  <rect x="10" y="10" width="80" height="80" rx="12" fill="#009688"/>
  
  <!-- Three white curves forming the stylized ADRA leaf/globe -->
  <path d="M 28 65 C 28 65, 36 32, 50 32 C 64 32, 72 65, 72 65 C 72 65, 64 42, 50 42 C 36 42, 28 65, 28 65 Z" fill="#FFFFFF"/>
  <path d="M 38 72 C 38 72, 44 54, 50 54 C 56 54, 62 72, 62 72 C 62 72, 56 60, 50 60 C 44 60, 38 72, 38 72 Z" fill="#FFFFFF"/>
  <circle cx="50" cy="24" r="5" fill="#FFFFFF"/>

  <!-- Text "ADRA" at the bottom -->
  <g transform="translate(50, 84)" text-anchor="middle">
    <text font-family="'Arial Black', 'system-ui', sans-serif" font-weight="900" font-size="12" fill="#FFFFFF" letter-spacing="1">ADRA</text>
  </g>
</svg>
