<svg xmlns="http://www.w3.org/2000/svg" viewBox="0 0 100 100" width="100%" height="100%">
  <!-- Circular container with soft green/gold border -->
  <circle cx="50" cy="50" r="42" fill="#F1F8E9" stroke="#81C784" stroke-width="3"/>
  
  <!-- Hand trunk -->
  <path d="M 45 80 L 55 80 L 54 62 C 55 58, 62 55, 66 50 C 68 47, 65 45, 62 48 C 58 52, 54 55, 52 50 C 50 46, 50 40, 50 35 C 50 32, 47 32, 47 35 C 47 42, 45 48, 43 51 C 40 55, 36 52, 33 50 C 31 49, 30 51, 33 54 C 36 57, 42 62, 42 66 Z" fill="#8D6E63"/>

  <!-- Leaves (green tones) -->
  <!-- Left group -->
  <path d="M 33 50 C 26 48, 26 38, 33 38 C 40 38, 40 48, 33 50 Z" fill="#4CAF50"/>
  <path d="M 28 42 C 22 42, 22 34, 28 34 C 34 34, 34 42, 28 42 Z" fill="#81C784"/>
  <!-- Top group -->
  <path d="M 50 35 C 50 25, 42 22, 50 15 C 58 22, 50 25, 50 35 Z" fill="#2E7D32"/>
  <path d="M 43 28 C 38 22, 44 18, 48 22 C 52 26, 48 28, 43 28 Z" fill="#43A047"/>
  <path d="M 57 28 C 62 22, 56 18, 52 22 C 48 26, 52 28, 57 28 Z" fill="#66BB6A"/>
  <!-- Right group -->
  <path d="M 66 50 C 73 48, 73 38, 66 38 C 59 38, 59 48, 66 50 Z" fill="#388E3C"/>
  <path d="M 72 42 C 78 42, 78 34, 72 34 C 66 34, 66 42, 72 42 Z" fill="#A5D6A7"/>

  <!-- Gold/yellow coins/seeds at the bottom representing stewardship of resources -->
  <circle cx="36" cy="70" r="3" fill="#FFD54F" stroke="#F57F17" stroke-width="0.5"/>
  <circle cx="50" cy="72" r="3.5" fill="#FFD54F" stroke="#F57F17" stroke-width="0.5"/>
  <circle cx="64" cy="70" r="3" fill="#FFD54F" stroke="#F57F17" stroke-width="0.5"/>
</svg>
