<svg xmlns="http://www.w3.org/2000/svg" viewBox="0 0 100 100" width="100%" height="100%">
  <!-- Purple background circle -->
  <circle cx="50" cy="50" r="42" fill="#E1BEE7" stroke="#4A148C" stroke-width="3"/>
  <circle cx="50" cy="50" r="38" fill="#F3E5F5"/>

  <!-- Profile of the woman (in purple) -->
  <path d="M 32 80 C 32 70, 36 60, 42 55 C 38 52, 35 46, 35 40 C 35 30, 43 22, 53 22 C 57 22, 62 25, 64 28 C 60 30, 58 35, 58 40 C 58 45, 61 49, 64 51 C 60 55, 53 62, 53 72 L 53 80 Z" fill="#7B1FA2"/>
  
  <!-- Flowing hair (curves in darker purple/pink) -->
  <path d="M 53 22 C 45 22, 38 30, 38 40 C 38 50, 32 55, 26 58 C 32 60, 36 68, 38 75" fill="none" stroke="#4A148C" stroke-width="3" stroke-linecap="round"/>
  <path d="M 48 23 C 42 25, 41 35, 41 42 C 41 48, 36 53, 31 55" fill="none" stroke="#8E24AA" stroke-width="2" stroke-linecap="round"/>

  <!-- Stylized White Dove of Peace flying up-right -->
  <path d="M 64 34 C 64 34, 68 26, 76 25 C 74 29, 70 33, 72 37 C 74 41, 80 43, 82 41 C 80 44, 74 48, 70 48 C 66 48, 64 42, 64 34 Z" fill="#FFFFFF" stroke="#4A148C" stroke-width="1" stroke-linejoin="round"/>
  <circle cx="71" cy="33" r="0.75" fill="#4A148C"/>
</svg>
